# xmcd CD database file
#
# Track frame offsets:
#	150
#	14444
#	28904
#	43110
#	60341
#	75787
#	88848
#	102946
#	117032
#	129165
#	142523
#	157261
#	175717
#	193196
#	207284
#	220035
#	233469
#	246660
#	259778
#	273051
#
# Disc length: 3816 seconds
#
# Revision: 0
# Processed by: cddbd v1.5.2PL0 Copyright (c) Steve Scherf et al.
# Submitted via: CDex 1.70beta2
#
DISCID=050ee614
DTITLE=Miles Davis - The Complete Recordings 1945 - 1960 - 06. The Charlie Parker Years Vol. 3
DYEAR=1947
DGENRE=Jazz
TTITLE0=Bird Of Paradise (Tk 1)
TTITLE1=Bird Of Paradise (Tk B)
TTITLE2=Bird Of Paradise (Tk C)
TTITLE3=Embraceable You (Tk 1)
TTITLE4=Embraceable You (Tk 2)
TTITLE5=Bird Feathers (Tk 3)
TTITLE6=Klactoveedsedstene (Tk 1)
TTITLE7=Klactoveedsedstene (Tk 2)
TTITLE8=Scrapple From The Apple (Tk 2)
TTITLE9=Scrapple From The Apple (Tk 3)
TTITLE10=My Old Flame (Blue Lamp)
TTITLE11=Out Of Nowhere (Tk 1)
TTITLE12=Out Of Nowhere (Tk 2)
TTITLE13=Out Of Nowhere (Tk 3)
TTITLE14=Don’t Blame Me
TTITLE15=Drifting On A Reed (Giant Swing) (Tk 2)
TTITLE16=Drifting On A Reed (Tk 4)
TTITLE17=Drifting On A Reed (Air Conditioning) (Tk 5)
TTITLE18=Quasimodo (TK 1)
TTITLE19=Quasimodo (Trade Winds) (TK 2)
EXTD=YEAR: 1947
EXTT0=
EXTT1=
EXTT2=
EXTT3=
EXTT4=
EXTT5=
EXTT6=
EXTT7=
EXTT8=
EXTT9=
EXTT10=
EXTT11=
EXTT12=
EXTT13=
EXTT14=
EXTT15=
EXTT16=
EXTT17=
EXTT18=
EXTT19=
PLAYORDER=
